<?xml version="1.0" standalone="no"?>
<!DOCTYPE svg PUBLIC "-//W3C//DTD SVG 20010904//EN"
 "http://www.w3.org/TR/2001/REC-SVG-20010904/DTD/svg10.dtd">
<svg version="1.0" xmlns="http://www.w3.org/2000/svg"
 width="700.000000pt" height="700.000000pt" viewBox="0 0 700.000000 700.000000"
 preserveAspectRatio="xMidYMid meet">
<metadata>
Created by potrace 1.11, written by Peter Selinger 2001-2013
</metadata>
<g transform="translate(0.000000,700.000000) scale(0.100000,-0.100000)"
fill="#000000" stroke="none">
<path d="M3089 6803 c-1 -2 -2 -7 -3 -12 -2 -18 -13 -21 -77 -24 -35 -1 -69
-6 -76 -10 -6 -4 -14 -3 -17 2 -4 6 -18 6 -35 1 -19 -5 -33 -4 -40 3 -8 8 -11
8 -11 0 0 -6 7 -13 15 -17 8 -3 15 -10 15 -16 0 -17 -21 -11 -41 13 l-20 22
11 -22 c10 -23 9 -23 -52 -24 -35 -1 -67 -1 -71 0 -5 1 -6 -3 -2 -9 3 -5 2
-10 -4 -10 -5 0 -12 6 -14 13 -3 6 -6 2 -6 -10 -1 -24 25 -26 39 -2 7 10 9 9
8 -7 -1 -12 -9 -21 -18 -21 -107 -1 -131 -4 -124 -15 6 -10 4 -10 -7 -2 -19
15 -48 14 -42 -2 9 -23 -7 -36 -25 -22 -13 11 -14 11 -8 0 6 -11 1 -12 -23 -9
-27 5 -31 2 -31 -18 0 -18 -5 -23 -20 -22 -12 1 -18 7 -16 14 3 7 0 15 -6 19
-6 4 -8 3 -5 -2 12 -20 -12 -36 -52 -37 -41 -1 -42 -1 -16 -14 21 -12 27 -33
9 -33 -3 0 -3 4 0 9 3 5 -3 11 -15 14 -15 4 -18 2 -10 -7 10 -11 -8 -15 -86
-19 -7 0 -14 -6 -17 -14 -6 -15 -1 -16 23 -4 13 7 18 6 18 -3 0 -14 -1 -14
-67 -20 -25 -2 -47 -5 -50 -6 -3 -1 -8 -2 -12 -1 -4 0 -5 -8 -3 -19 4 -20 -6
-24 -50 -21 -14 1 -16 -1 -8 -7 22 -14 -8 -41 -47 -44 -46 -2 -53 -7 -39 -24
12 -15 11 -16 -23 -18 -17 -1 -23 -7 -22 -22 1 -11 -5 -21 -13 -21 -8 0 -11 8
-8 21 3 12 2 15 -1 8 -3 -6 -9 -10 -14 -7 -4 3 -7 -3 -6 -13 1 -13 -5 -16 -28
-14 -17 2 -26 0 -22 -6 10 -16 -5 -42 -24 -42 -19 0 -34 -26 -24 -42 4 -6 -1
-8 -15 -3 -17 5 -23 1 -31 -19 -5 -15 -13 -26 -17 -25 -29 5 -40 -3 -38 -26 2
-14 -1 -25 -5 -25 -14 0 -21 18 -10 23 6 3 5 4 -2 3 -7 -2 -12 -9 -11 -15 3
-11 -8 -14 -42 -12 -15 2 -17 0 -6 -7 11 -8 11 -11 0 -16 -8 -3 -4 -3 9 0 17
4 22 1 22 -13 0 -13 -2 -15 -9 -5 -7 11 -11 11 -24 -2 -18 -18 -31 -21 -21 -5
4 7 -1 7 -16 -1 -12 -6 -19 -18 -16 -25 3 -8 1 -17 -4 -20 -5 -3 -7 -14 -5
-24 2 -10 -2 -18 -8 -18 -40 1 -48 -4 -42 -23 7 -21 -9 -28 -21 -8 -4 7 -3 8
4 4 8 -5 10 -2 6 8 -9 23 -24 20 -19 -4 2 -11 -1 -22 -6 -25 -5 -4 -6 -12 -2
-18 4 -7 0 -6 -10 2 -9 7 -17 10 -17 5 0 -5 -5 -2 -11 6 -9 13 -10 13 -6 0 2
-8 8 -14 13 -13 5 0 15 -5 22 -13 11 -13 10 -14 -12 -10 -21 4 -26 1 -27 -17
-1 -12 -1 -26 0 -30 1 -5 -9 -7 -21 -5 -15 2 -23 -2 -24 -12 -1 -8 -2 -20 -3
-27 0 -6 -10 -10 -21 -8 -16 3 -20 -2 -20 -24 0 -25 -3 -28 -25 -23 -23 4 -25
1 -25 -32 0 -35 -14 -44 -33 -21 -5 6 -7 3 -3 -7 3 -10 1 -20 -5 -23 -5 -4 -9
-12 -8 -18 3 -27 -2 -37 -21 -37 -15 0 -20 -7 -20 -25 0 -14 -6 -25 -12 -25
-10 0 -9 -3 1 -9 10 -7 11 -13 2 -27 -9 -16 -10 -16 -11 -3 0 9 -6 22 -14 28
-11 10 -14 9 -12 -1 1 -7 6 -19 10 -27 6 -10 5 -12 -2 -7 -12 7 -17 -11 -13
-43 2 -7 -2 -10 -8 -6 -15 9 -14 -8 1 -24 9 -9 9 -12 1 -7 -6 3 -14 0 -17 -6
-4 -9 -5 -8 -5 2 2 30 -1 43 -8 36 -5 -4 -9 -21 -9 -37 -3 -71 -4 -74 -13 -60
-9 14 -31 7 -31 -10 0 -6 5 -7 10 -4 6 3 10 1 10 -4 0 -6 -4 -11 -10 -11 -5 0
-10 -13 -10 -30 0 -25 -4 -30 -25 -30 -14 0 -24 -3 -24 -7 1 -5 1 -27 0 -51
-1 -41 -2 -42 -23 -31 -22 12 -22 11 -8 -6 8 -10 10 -16 3 -12 -6 4 -14 3 -17
-2 -9 -14 20 -21 35 -8 11 10 11 9 0 -5 -7 -10 -17 -16 -21 -13 -5 3 -11 1
-15 -5 -3 -5 0 -10 7 -10 10 0 11 -2 0 -8 -7 -5 -10 -16 -6 -25 7 -20 -7 -22
-25 -4 -10 10 -11 9 -6 -5 4 -10 11 -18 16 -18 5 0 9 -5 9 -11 0 -5 -4 -7 -10
-4 -6 3 -10 1 -10 -5 0 -6 -4 -8 -10 -5 -8 5 -17 -94 -11 -128 1 -5 -3 -6 -9
-2 -5 3 -10 1 -10 -5 0 -6 -4 -9 -10 -5 -5 3 -7 12 -4 20 4 8 10 12 15 9 5 -3
6 2 3 11 -17 44 -35 -42 -38 -182 0 -24 -4 -43 -8 -43 -5 0 -6 11 -4 23 3 15
-1 24 -10 24 -7 0 -11 -4 -8 -9 3 -4 -1 -8 -8 -8 -9 0 -9 -3 2 -10 10 -6 11
-13 5 -17 -6 -5 -10 -50 -10 -105 0 -54 -3 -98 -7 -98 -5 0 -8 -5 -8 -11 0 -5
5 -7 11 -3 6 3 3 -8 -6 -25 -9 -17 -13 -36 -10 -41 3 -6 -1 -7 -9 -4 -14 5
-16 -25 -16 -279 0 -284 0 -286 22 -301 12 -9 18 -16 12 -16 -5 0 -15 5 -22
12 -9 9 -12 8 -12 -5 0 -9 5 -17 10 -17 6 0 10 -8 10 -17 0 -15 -2 -16 -10 -3
-7 12 -9 10 -7 -8 0 -12 5 -22 9 -22 4 0 8 -5 8 -11 0 -5 -4 -8 -8 -5 -5 3 -9
-1 -9 -9 0 -11 3 -12 14 -3 8 6 12 17 9 25 -3 7 -2 13 3 13 5 0 11 -9 14 -20
3 -11 2 -18 -2 -16 -4 3 -13 -5 -21 -17 -12 -19 -11 -21 2 -10 8 7 18 10 21 6
4 -3 -1 -12 -11 -20 -9 -8 -12 -12 -6 -9 7 3 14 -1 18 -9 3 -8 0 -15 -7 -15
-7 0 -8 -3 -2 -8 6 -4 10 -20 10 -37 0 -16 4 -33 10 -37 6 -5 5 -8 -3 -8 -7 0
-10 -5 -7 -10 5 -8 12 -7 22 2 15 12 15 11 3 -9 -8 -12 -19 -19 -25 -16 -5 3
-4 0 3 -8 16 -17 16 -32 0 -23 -8 4 -10 3 -5 -2 5 -5 13 -10 18 -10 5 -1 13
-2 18 -3 5 0 10 -31 11 -68 2 -103 5 -116 23 -119 10 -1 15 2 11 7 -3 5 0 9 5
9 7 0 11 -23 11 -55 0 -31 4 -55 10 -55 7 0 7 -6 0 -20 -6 -11 -8 -21 -5 -21
3 -1 10 -3 15 -4 6 -1 14 -3 18 -4 4 0 8 -20 7 -43 0 -28 5 -43 15 -45 13 -4
13 -3 0 6 -13 9 -13 11 1 11 21 0 29 -20 29 -71 0 -38 8 -46 43 -40 7 1 11
-45 8 -81 -2 -12 5 -18 18 -18 11 0 23 -5 26 -10 3 -5 -2 -10 -12 -10 -17 -1
-17 -1 0 -11 9 -6 15 -14 12 -20 -4 -5 2 -12 11 -16 16 -6 16 -7 -2 -15 -15
-7 -13 -8 8 -5 22 3 28 0 28 -17 0 -51 5 -76 12 -76 5 0 8 7 6 16 -2 10 4 18
14 19 10 2 17 0 17 -3 -1 -4 -1 -24 0 -44 1 -30 5 -38 20 -38 23 0 34 -23 18
-39 -11 -11 6 -16 39 -12 10 1 14 -18 15 -72 0 -12 5 -17 14 -13 18 6 39 -19
31 -39 -4 -11 2 -15 24 -15 22 0 28 -4 24 -15 -7 -18 16 -43 35 -37 10 3 12 0
8 -11 -3 -8 -3 -18 1 -22 4 -4 7 -16 7 -27 0 -26 20 -35 29 -13 4 11 2 14 -6
9 -7 -5 -8 -3 -3 6 6 9 4 11 -5 5 -8 -5 -11 -4 -6 3 8 14 38 3 33 -12 -2 -6 0
-19 5 -29 7 -15 12 -16 24 -6 11 9 14 8 14 -4 0 -10 -7 -15 -20 -12 -11 2 -20
0 -20 -6 0 -5 11 -9 25 -9 24 0 30 -9 25 -39 -1 -9 4 -12 14 -8 8 3 18 2 21
-3 3 -5 18 -7 33 -5 15 2 21 2 14 -1 -10 -5 -10 -9 0 -22 10 -14 8 -13 -8 1
-20 16 -22 16 -28 2 -8 -23 -8 -24 12 -24 42 -2 60 -6 57 -11 -2 -4 5 -13 16
-20 20 -15 27 -36 8 -24 -8 4 -7 0 1 -15 6 -12 15 -19 20 -16 5 3 11 1 14 -3
3 -5 18 -7 32 -4 25 4 26 3 22 -22 -5 -23 -2 -26 23 -26 21 0 27 -4 23 -15 -4
-8 -11 -12 -17 -8 -6 3 -7 1 -3 -6 4 -6 11 -9 16 -6 5 3 11 1 15 -4 3 -6 12
-8 20 -5 8 4 15 -3 17 -18 3 -23 9 -25 83 -29 11 -1 14 -3 7 -6 -10 -4 -10 -8
0 -21 10 -12 10 -14 1 -8 -7 4 -13 2 -13 -3 0 -10 38 -16 63 -12 5 1 5 -4 1
-10 -5 -9 -2 -10 12 -6 18 7 18 7 0 -8 -20 -15 -16 -19 17 -16 9 1 17 -3 17
-9 0 -7 6 -8 19 -1 15 8 20 7 25 -5 4 -12 2 -15 -9 -10 -8 3 -15 1 -15 -4 0
-12 44 -23 90 -23 19 0 29 -2 22 -5 -6 -2 -12 -8 -12 -13 0 -6 5 -7 12 -3 7 5
8 3 3 -6 -6 -10 -11 -9 -21 4 -6 9 -14 13 -17 9 -11 -17 8 -28 53 -31 25 -2
52 -10 60 -18 10 -10 11 -14 2 -14 -7 0 -12 5 -12 10 0 6 -4 10 -8 10 -21 0
-6 -30 15 -31 13 -1 33 -2 44 -3 12 0 25 -10 29 -22 8 -20 20 -23 113 -27 27
-1 37 -20 17 -32 -6 -4 -9 -1 -8 7 2 7 -3 13 -11 13 -24 0 -21 -31 3 -32 106
-2 106 -2 118 -28 10 -22 13 -23 20 -10 5 8 14 15 21 15 7 0 6 -4 -3 -10 -17
-11 -16 -11 55 -16 73 -6 74 -6 68 -22 -4 -9 -8 -10 -12 -3 -5 8 -12 7 -24 -2
-19 -13 -21 -13 138 -18 44 -1 70 -4 58 -6 -26 -5 -28 -11 -12 -33 9 -12 10
-11 4 5 -3 11 -3 16 1 12 4 -4 17 -1 29 7 18 12 22 12 22 1 0 -8 -3 -14 -6
-13 -18 2 -31 -3 -31 -12 0 -6 6 -10 13 -9 31 4 39 -2 35 -25 -4 -20 -1 -23
17 -20 19 3 22 -1 24 -44 1 -26 6 -51 12 -57 13 -13 11 -27 -3 -19 -7 4 -9 3
-5 -1 4 -5 14 -10 22 -11 12 -2 12 2 5 17 -8 14 -7 19 3 19 12 0 18 -30 20
-117 1 -12 3 -21 7 -21 25 2 38 -4 36 -19 -2 -10 2 -21 7 -25 7 -4 7 -11 -2
-21 -9 -12 -9 -17 1 -23 7 -5 18 -9 23 -9 6 0 11 -13 13 -30 5 -60 12 -79 25
-66 20 20 24 12 26 -51 2 -35 4 -68 4 -75 0 -6 10 -9 22 -7 20 3 22 0 19 -36
-1 -22 2 -40 7 -40 6 0 7 -5 4 -11 -4 -6 0 -9 11 -7 16 2 19 -5 22 -44 2 -27
7 -48 12 -48 6 0 6 -9 1 -23 -7 -18 -6 -24 5 -24 9 0 12 7 9 17 -3 10 0 22 8
28 10 9 13 1 15 -41 3 -67 6 -81 15 -84 16 -6 19 -2 8 11 -8 10 -9 16 -1 21 5
3 10 5 11 3 1 -5 9 -61 12 -80 0 -10 5 -18 9 -18 4 0 8 -5 8 -11 0 -5 -5 -7
-10 -4 -6 4 -9 1 -8 -7 5 -23 38 -39 38 -17 0 5 -5 7 -12 3 -7 -4 -8 -3 -4 5
10 15 27 3 25 -17 -5 -54 2 -92 17 -92 11 0 14 -6 9 -22 -6 -22 -5 -22 8 1 14
23 14 22 16 -25 2 -73 6 -89 24 -92 10 -2 17 2 17 8 0 7 -6 10 -14 7 -14 -6
-17 16 -4 29 10 9 30 -36 25 -56 -3 -14 -1 -17 11 -13 10 4 13 2 8 -5 -4 -7
-3 -12 3 -12 5 0 10 8 10 18 1 9 3 31 5 47 3 17 6 42 7 56 3 26 20 32 36 14 4
-4 2 -5 -4 -1 -9 5 -11 2 -7 -9 12 -31 21 -2 23 73 1 28 5 32 29 33 16 1 20 3
10 6 -10 2 -18 10 -18 16 0 7 -5 6 -11 -3 -9 -13 -10 -13 -6 0 2 8 9 16 15 16
7 1 16 2 20 3 4 0 7 17 7 36 -1 19 3 35 8 35 5 0 4 6 -2 14 -9 10 -8 15 3 19
20 8 27 -5 15 -23 -13 -22 -11 -33 4 -18 11 10 17 41 20 116 0 6 5 12 11 11
23 -3 36 1 36 12 0 5 -4 8 -8 5 -5 -3 -9 1 -9 9 0 8 4 12 9 9 4 -3 8 11 8 30
0 32 3 36 28 37 24 0 25 1 7 9 -15 6 -16 9 -4 9 11 1 15 10 14 36 -1 19 2 36
6 36 5 1 15 2 21 3 12 1 16 25 19 103 0 17 7 34 15 37 8 3 14 1 14 -5 0 -6 4
-8 8 -5 5 3 9 24 10 48 1 33 8 48 27 65 15 13 20 23 13 23 -8 0 -19 -5 -24
-10 -7 -7 -11 -6 -11 4 0 8 3 15 6 14 27 -3 38 5 37 25 -1 14 4 21 14 19 10
-1 9 2 -4 13 -11 8 -14 15 -7 15 7 0 9 5 5 12 -4 6 -3 8 2 5 21 -13 35 12 36
64 1 29 3 48 6 41 2 -7 13 -17 25 -24 20 -10 21 -10 8 5 -9 11 -10 17 -2 17 7
0 11 20 11 50 0 28 5 50 10 50 6 0 10 -5 10 -12 0 -8 3 -9 10 -2 6 6 11 29 13
52 2 35 5 42 23 42 12 0 24 7 28 15 3 8 13 14 23 14 17 -1 17 -2 1 -6 -33 -8
-18 -20 23 -19 33 1 36 2 20 10 -36 16 -25 34 22 34 97 0 108 2 101 15 -6 9
-4 9 8 -1 16 -13 48 -7 48 9 0 5 -7 9 -16 9 -9 0 -12 -5 -8 -12 5 -8 1 -8 -12
2 -10 8 -21 15 -23 17 -2 1 5 2 15 2 11 -1 53 2 94 6 41 4 82 8 91 8 9 1 16 7
16 13 0 7 -6 10 -13 7 -6 -2 -15 0 -19 6 -4 7 11 11 44 11 43 0 50 3 53 22 3
23 16 27 98 30 30 1 47 4 38 6 -10 2 -18 8 -18 13 0 5 -5 9 -11 9 -5 0 -7 -5
-3 -12 5 -7 3 -8 -5 -3 -9 5 -10 10 -2 18 7 7 15 6 26 -3 12 -10 15 -10 15 3
0 9 7 14 18 12 9 -1 27 1 39 6 12 4 23 5 26 1 2 -4 3 -2 1 4 -5 22 12 33 53
35 24 2 45 9 47 16 4 11 1 11 -14 3 -11 -6 -20 -9 -21 -8 -7 26 -4 35 10 35
62 0 90 5 107 19 18 15 18 15 -3 5 -30 -15 -33 -14 -33 12 0 15 3 18 8 9 11
-17 42 -5 43 17 0 12 2 12 9 -4 l9 -20 1 20 c1 11 4 14 7 8 8 -21 25 -14 18 7
-5 17 -2 20 25 20 18 0 29 4 25 10 -3 6 -2 10 4 10 5 0 12 -6 14 -12 4 -10 6
-10 6 0 1 7 -6 15 -14 18 -8 4 -15 10 -15 16 0 5 4 6 10 3 14 -9 52 14 44 27
-4 7 -3 8 5 4 6 -4 9 -12 6 -17 -4 -5 2 -9 13 -9 15 0 18 5 15 24 -4 21 -2 24
21 22 22 -3 26 0 24 17 -2 15 4 22 26 28 16 5 33 6 38 3 4 -3 8 -1 8 5 0 5 -7
11 -15 13 -29 6 1 28 42 31 23 1 39 5 37 9 -8 12 8 39 21 35 6 -3 17 4 23 14
8 12 8 19 2 19 -5 0 -10 -4 -10 -8 0 -5 -6 -9 -13 -9 -8 0 -14 5 -14 12 0 10
7 12 62 16 30 2 41 15 19 23 -10 4 -13 2 -8 -7 6 -9 5 -9 -8 0 -8 7 -19 9 -24
5 -4 -4 -2 1 5 11 9 11 18 14 25 8 12 -10 29 5 34 29 2 8 8 20 14 25 7 7 7 3
0 -11 -11 -21 -7 -34 9 -34 5 0 6 6 3 13 -2 7 2 21 11 32 13 17 16 18 25 5 10
-13 11 -13 9 0 -4 40 1 49 25 44 20 -3 24 0 23 15 0 11 -5 17 -9 15 -5 -3 -6
-10 -3 -15 3 -5 -1 -6 -10 -3 -21 8 -14 26 10 30 11 2 21 8 23 13 2 6 8 11 13
11 6 0 7 -4 4 -10 -3 -6 -2 -10 3 -10 6 0 12 7 16 15 3 8 2 14 -2 14 -18 -3
-32 2 -32 12 0 5 5 7 10 4 15 -9 40 14 33 31 -4 10 2 14 20 14 21 0 25 4 22
26 -2 21 1 25 16 21 22 -6 35 10 30 37 -2 13 2 17 12 13 9 -3 20 0 25 6 12 14
12 16 12 57 0 25 4 30 23 30 23 0 25 6 28 73 0 10 6 17 12 16 26 -3 34 2 34
19 0 40 3 45 16 33 8 -6 17 -8 20 -4 4 3 -1 11 -10 18 -13 9 -13 14 -3 20 9 5
11 4 6 -3 -4 -7 -2 -12 3 -12 10 0 16 27 12 57 -1 6 9 13 21 15 20 3 23 9 23
50 -1 44 1 47 21 44 24 -5 41 19 21 28 -9 3 -9 5 0 5 7 1 10 8 6 18 -4 11 -3
14 6 9 14 -9 11 16 -4 26 -6 5 -5 8 2 8 7 0 10 6 7 14 -7 18 12 30 22 15 5 -8
3 -9 -6 -4 -8 5 -11 3 -9 -4 3 -7 9 -13 14 -14 10 -2 11 5 16 96 1 26 6 42 10
36 4 -7 6 -21 4 -31 -2 -10 1 -18 7 -18 5 0 8 6 5 14 -3 7 0 19 6 25 6 6 12
41 13 76 1 68 4 75 26 78 7 2 13 7 13 12 0 6 -4 9 -8 7 -5 -1 -6 2 -2 8 3 6
11 7 17 4 7 -5 9 2 6 20 -3 14 -1 29 4 32 5 3 4 12 -3 20 -14 17 -9 24 18 28
19 3 19 4 26 238 1 36 5 64 10 61 4 -2 4 -9 1 -15 -5 -7 -1 -9 9 -5 11 4 14 2
10 -8 -3 -8 -8 -13 -12 -10 -4 2 -8 -2 -8 -9 0 -11 4 -12 18 -3 22 13 18 35
-10 58 -12 10 -17 20 -12 23 5 3 11 -1 15 -9 3 -8 10 -15 16 -15 6 0 3 12 -7
28 -14 21 -14 24 -2 15 13 -11 15 -6 14 35 0 26 -4 52 -8 59 -4 6 -4 14 0 16
11 7 10 369 -1 386 -6 9 -5 12 0 8 5 -3 10 3 10 14 0 10 -4 19 -8 19 -5 0 -5
8 0 18 5 9 6 26 1 37 -6 15 -8 16 -8 4 -1 -9 -8 -19 -16 -23 -13 -5 -13 -2 1
19 9 13 13 29 10 34 -4 5 -1 13 5 17 7 4 9 3 5 -4 -3 -6 -2 -13 3 -16 8 -5 8
15 1 34 -1 3 -2 9 -1 13 1 5 -3 6 -9 2 -6 -3 -8 -10 -5 -15 3 -4 -1 -10 -8
-13 -12 -4 -13 11 -20 244 -1 18 -6 26 -17 24 -22 -4 -34 6 -19 16 9 6 10 12
4 17 -6 4 -10 24 -10 45 0 34 -6 42 -28 38 -5 -1 -6 3 -2 8 3 6 11 8 19 5 7
-3 13 2 13 10 0 11 -6 12 -24 5 -17 -6 -23 -5 -23 6 0 7 5 17 12 21 7 4 8 3 4
-4 -4 -7 -3 -12 3 -12 5 0 12 4 15 9 7 11 -22 23 -35 15 -6 -3 -7 7 -4 25 3
20 1 31 -6 31 -8 0 -7 5 2 16 10 12 10 17 0 23 -7 5 -12 14 -11 22 1 8 2 21 1
29 -1 13 -3 13 -10 1 -5 -8 -7 -21 -3 -29 3 -10 1 -13 -6 -8 -6 3 -11 14 -11
24 1 51 -4 112 -9 108 -11 -12 -40 15 -35 32 3 12 -4 22 -19 30 -23 12 -23 12
-1 6 18 -4 22 -2 17 11 -4 11 -14 15 -26 12 -14 -4 -18 -1 -14 9 3 8 1 14 -4
14 -5 0 -7 7 -4 15 4 9 0 15 -7 15 -11 0 -11 3 1 10 13 9 13 10 0 10 -13 0
-13 1 0 10 11 7 11 10 2 10 -7 0 -10 6 -7 13 4 6 0 4 -8 -6 -13 -16 -15 -16
-21 -1 -3 8 -6 24 -6 34 0 11 -11 31 -25 46 -26 28 -34 50 -12 38 9 -6 9 -5 0
8 -7 8 -9 18 -5 23 4 4 -3 2 -16 -4 -26 -14 -32 -5 -35 53 -1 19 -8 38 -16 41
-9 3 -11 0 -8 -10 4 -8 1 -17 -5 -21 -6 -4 -8 -3 -4 4 3 6 2 13 -4 17 -5 3
-10 17 -10 31 0 19 -5 24 -27 24 -14 0 -23 3 -19 7 4 4 15 8 23 8 9 0 17 6 19
13 1 7 0 8 -3 2 -2 -5 -9 -10 -14 -10 -6 0 -7 5 -4 10 4 6 1 9 -7 8 -8 -2 -13
7 -13 22 0 18 -7 26 -25 30 -18 3 -25 11 -24 26 1 11 -5 21 -12 21 -7 0 -10
-5 -7 -11 4 -6 -1 -5 -9 2 -9 8 -18 23 -20 35 -2 16 -9 21 -23 19 -16 -2 -17
-1 -5 7 13 9 13 11 -2 11 -11 0 -15 5 -12 15 4 8 2 15 -2 16 -25 2 -47 8 -52
15 -4 4 1 4 11 1 10 -4 17 -1 17 6 0 8 4 6 10 -3 5 -8 10 -10 10 -5 0 14 -21
35 -34 35 -6 0 -4 -5 4 -10 9 -6 10 -10 3 -10 -16 0 -32 31 -26 50 4 13 3 13
-6 0 -5 -8 -8 -17 -5 -21 2 -4 0 -11 -6 -14 -6 -4 -10 -3 -9 2 4 15 -16 48
-28 48 -7 0 -13 5 -14 10 0 6 -6 17 -12 25 -10 13 -10 13 4 3 9 -7 20 -9 25
-5 4 4 2 -2 -6 -12 -13 -17 -13 -19 0 -14 17 5 21 28 5 29 -5 0 -15 5 -22 11
-7 5 -17 7 -22 4 -5 -4 -12 -2 -16 4 -4 6 -10 8 -15 5 -4 -3 -6 4 -3 15 3 12
0 20 -6 20 -7 0 -11 7 -9 16 2 10 -3 19 -11 22 -9 3 -11 -1 -6 -17 3 -11 3
-21 -2 -21 -8 0 -13 18 -16 61 -1 10 -7 15 -16 11 -8 -3 -12 -1 -8 4 5 9 -7
13 -50 16 -12 1 -18 19 -14 41 1 5 -9 7 -21 5 -17 -2 -24 3 -26 20 -3 17 -10
22 -35 23 -18 1 -36 1 -41 0 -5 -1 -4 4 2 12 7 8 9 17 5 21 -4 4 1 4 12 1 16
-6 17 -5 5 4 -8 6 -32 11 -52 11 -30 0 -38 4 -37 18 0 10 3 12 6 5 5 -15 23
-18 23 -5 0 5 -12 14 -27 21 -21 10 -28 9 -34 -1 -6 -9 -9 -7 -9 7 0 17 -2 18
-10 5 -8 -11 -9 -8 -4 13 6 26 5 27 -40 27 -42 0 -46 2 -46 25 0 25 -4 27 -68
28 -17 0 -20 3 -11 13 15 19 4 32 -26 29 -25 -3 -52 25 -38 39 3 3 -1 6 -11 6
-11 0 -14 -4 -9 -12 11 -19 13 -39 2 -32 -5 3 -6 10 -3 16 5 7 1 9 -9 5 -11
-4 -14 -2 -10 9 4 10 -3 14 -21 15 -59 3 -66 4 -66 12 0 4 0 12 0 17 0 6 4 10
10 10 5 0 9 -3 7 -7 -1 -5 2 -9 7 -11 6 -1 11 4 12 11 1 8 -9 14 -25 14 -80 3
-113 7 -118 16 -3 6 -1 7 5 3 7 -4 12 -4 12 1 -1 21 -19 29 -62 28 -30 0 -50
5 -53 13 -3 7 -1 11 3 8 5 -3 9 0 9 7 0 7 -12 13 -26 13 -137 6 -159 9 -149
21 7 9 7 13 -1 13 -7 0 -9 5 -6 10 5 9 -51 14 -142 13 -30 0 -29 3 3 20 17 9
23 17 15 21 -6 4 -11 2 -11 -3 0 -6 -7 -11 -15 -11 -8 0 -15 5 -15 11 0 8 -5
8 -15 -1 -8 -7 -15 -8 -15 -3 0 5 -7 10 -15 10 -8 0 -15 -4 -15 -9 0 -5 -6 -6
-12 -1 -7 4 -37 8 -67 10 -30 1 -60 4 -67 7 -8 3 -14 1 -14 -5 0 -6 -4 -7 -10
-4 -17 11 -11 24 9 20 11 -2 24 2 30 8 7 10 -1 13 -34 13 -33 0 -41 -3 -34
-12 7 -8 6 -15 -2 -20 -8 -5 -9 -3 -4 6 6 10 4 12 -8 7 -35 -14 -51 -17 -29
-6 31 17 28 25 -14 27 -29 2 -35 0 -31 -12 4 -9 2 -18 -4 -21 -5 -4 -9 -3 -8
2 6 33 2 34 -277 33 -233 -1 -275 -3 -270 -15 3 -8 0 -17 -6 -21 -7 -4 -8 -3
-4 4 4 7 2 12 -4 12 -6 0 -9 4 -5 9 3 6 -12 9 -35 8 -22 -1 -41 -3 -41 -4z
m50 -19 c-16 -20 -45 -23 -45 -4 0 11 9 16 28 16 20 0 25 -3 17 -12z m-252
-49 c0 -8 -4 -12 -9 -9 -4 3 -8 9 -8 15 0 5 4 9 8 9 5 0 9 -7 9 -15z m1203 11
c0 -2 -8 -10 -17 -17 -16 -13 -17 -12 -4 4 13 16 21 21 21 13z m-1540 -90 c0
-3 -4 -8 -10 -11 -5 -3 -10 -1 -10 4 0 6 5 11 10 11 6 0 10 -2 10 -4z m1857
-11 c0 -8 -4 -15 -9 -15 -10 0 -11 14 -1 23 9 10 10 9 10 -8z m-1837 -9 c0 -2
-7 -7 -16 -10 -8 -3 -12 -2 -9 4 6 10 25 14 25 6z m-427 -187 c-17 -17 -37 -1
-22 17 8 10 15 12 23 4 7 -7 7 -13 -1 -21z m-133 -83 c0 -2 -7 -7 -16 -10 -8
-3 -12 -2 -9 4 6 10 25 14 25 6z m-145 -94 c-3 -3 -11 0 -18 7 -9 10 -8 11 6
5 10 -3 15 -9 12 -12z m3435 -147 c7 -8 8 -15 2 -15 -5 0 -15 7 -22 15 -7 8
-8 15 -2 15 5 0 15 -7 22 -15z m-3716 -104 c-2 -3 -12 3 -22 13 -16 17 -16 18
5 5 12 -7 20 -15 17 -18z m-290 -299 c3 -5 -1 -9 -9 -9 -8 0 -12 4 -9 9 3 4 7
8 9 8 2 0 6 -4 9 -8z m-45 -73 c-16 -10 -23 -4 -14 10 3 6 11 8 17 5 6 -4 5
-9 -3 -15z m-219 -405 c0 -8 -19 -13 -24 -6 -3 5 1 9 9 9 8 0 15 -2 15 -3z
m2447 -96 c-3 -7 -5 -2 -5 12 0 14 2 19 5 13 2 -7 2 -19 0 -25z m90 7 c0 -8
-4 -12 -9 -9 -5 3 -6 10 -3 15 9 13 12 11 12 -6z m2437 -18 c7 -6 6 -7 -4 -4
-8 2 -16 12 -17 23 -2 13 -1 15 4 4 3 -8 11 -19 17 -23z m-2559 3 c9 -14 65
-12 66 3 0 10 2 10 6 0 3 -9 36 -13 114 -13 111 0 113 -1 110 -40 0 -10 1 -11
5 -2 3 6 10 12 15 12 6 0 8 -3 6 -7 -3 -5 21 -8 53 -8 32 1 56 -3 54 -7 -8
-12 21 -9 33 3 9 9 11 7 9 -7 -2 -13 -11 -18 -27 -17 -19 2 -21 1 -9 -7 9 -5
40 -10 69 -12 53 -3 83 -20 60 -34 -7 -4 -9 -3 -5 4 3 6 2 13 -4 17 -5 3 -10
1 -10 -5 0 -6 -4 -9 -8 -6 -5 3 -9 -1 -9 -9 0 -7 7 -14 16 -14 67 -2 73 -4 68
-22 -5 -19 -1 -21 59 -22 14 -1 20 -6 17 -14 -3 -7 -9 -10 -14 -7 -5 3 -9 0
-9 -5 0 -6 5 -12 10 -12 6 -1 16 -2 23 -3 6 0 12 -5 13 -11 0 -5 4 -18 9 -28
6 -15 10 -16 16 -5 5 7 9 18 9 23 0 6 -4 4 -9 -4 -5 -8 -11 -9 -15 -3 -8 13
10 25 25 16 6 -3 9 -15 6 -25 -3 -11 -1 -19 5 -19 5 0 6 -6 2 -12 -6 -10 -4
-10 7 0 7 6 19 12 27 12 9 0 6 -7 -9 -20 -13 -10 -19 -19 -12 -20 6 0 13 6 16
13 7 19 17 3 20 -30 2 -29 17 -37 34 -18 4 4 3 5 -3 2 -7 -4 -14 -1 -17 6 -3
8 1 14 9 14 14 0 17 -7 17 -40 0 -13 4 -16 16 -12 13 5 14 4 4 -6 -20 -20 -15
-29 13 -29 14 0 23 -4 19 -10 -3 -6 -3 -20 0 -31 6 -17 9 -19 16 -8 7 11 9 11
9 1 0 -7 5 -10 10 -7 6 4 10 3 9 -2 -1 -4 -1 -25 0 -45 1 -31 5 -38 21 -38 18
0 26 -20 21 -52 0 -5 5 -8 12 -8 9 0 9 -2 -1 -9 -10 -6 -10 -10 3 -21 12 -10
15 -10 15 1 0 11 2 12 9 1 4 -7 9 -46 10 -85 1 -42 7 -75 14 -79 9 -6 9 -8 0
-8 -7 0 -13 -5 -13 -10 0 -6 10 -9 23 -6 21 4 22 1 23 -65 1 -48 -2 -67 -10
-62 -7 5 -7 2 1 -8 12 -15 16 -102 4 -95 -4 3 -12 -4 -19 -15 -7 -11 -8 -19
-2 -19 5 0 10 5 10 10 0 20 16 10 17 -11 2 -17 -3 -20 -20 -17 -19 4 -23 0
-24 -26 -4 -134 -8 -216 -11 -207 -2 6 -8 8 -14 5 -6 -4 -6 0 0 13 9 15 8 20
-3 20 -8 0 -12 -4 -9 -9 3 -4 2 -14 -3 -20 -4 -7 -7 -22 -8 -34 0 -11 -7 -29
-15 -40 -13 -17 -13 -18 0 -7 13 10 16 8 16 -8 0 -12 -5 -18 -13 -15 -7 3 -13
0 -13 -7 0 -8 -4 -6 -10 3 -7 11 -10 0 -10 -37 0 -50 -2 -53 -25 -53 -22 0
-25 -4 -26 -37 -1 -21 -3 -30 -6 -20 -6 23 -20 22 -34 -5 -10 -18 -9 -20 5
-15 8 3 18 2 21 -4 4 -5 3 -9 -2 -8 -23 4 -33 -3 -33 -25 0 -18 -6 -24 -25
-25 -56 -4 -63 -6 -58 -14 2 -4 13 -5 24 -2 22 7 25 -1 5 -20 -10 -10 -16 -11
-25 -2 -8 8 -11 7 -11 -7 0 -10 -5 -14 -11 -10 -8 4 -8 0 0 -15 14 -26 -3 -29
-19 -3 -7 11 -10 12 -7 2 2 -8 -2 -20 -9 -27 -15 -15 -28 -17 -19 -3 3 6 -1
10 -9 10 -10 0 -13 -7 -10 -25 4 -22 1 -25 -27 -25 -26 0 -31 -3 -26 -20 3
-11 0 -20 -6 -21 -7 0 -23 -3 -37 -5 -14 -2 -30 -5 -36 -6 -15 -2 -13 -25 2
-25 7 0 11 4 8 9 -3 4 0 8 5 8 6 0 11 -6 11 -13 0 -10 -17 -14 -57 -16 -32 -1
-62 -7 -68 -13 -7 -8 -6 -9 3 -4 6 4 12 4 12 -1 -1 -23 -21 -32 -82 -34 -49
-2 -69 -6 -73 -17 -3 -8 -3 -17 0 -20 3 -3 5 -1 5 5 0 6 7 13 15 17 9 3 15 0
15 -10 0 -8 -4 -13 -9 -9 -5 3 -13 1 -16 -5 -5 -8 -11 -7 -21 1 -8 6 -14 7
-14 2 0 -5 -22 -9 -50 -8 -29 1 -50 -3 -50 -9 0 -7 -3 -8 -8 -1 -4 6 -17 10
-30 11 -18 0 -21 -3 -16 -20 5 -19 4 -19 -11 2 -13 17 -20 21 -28 13 -15 -15
-30 -14 -21 2 6 9 4 9 -8 -1 -13 -10 -17 -10 -22 0 -3 7 -3 2 0 -12 l6 -25
-16 22 c-15 21 -53 22 -40 2 3 -5 10 -6 16 -3 7 4 8 2 4 -4 -4 -7 -2 -12 5
-12 7 0 9 -3 6 -6 -4 -4 -13 -2 -21 5 -11 9 -15 9 -20 -1 -4 -9 -5 -9 -5 2 2
33 -2 37 -33 34 -18 -2 -38 -6 -45 -9 -7 -2 -15 0 -18 5 -3 5 -17 6 -31 4 -22
-4 -25 -2 -20 13 5 16 4 16 -7 3 -25 -30 -46 -17 -38 24 1 5 -4 4 -12 -3 -10
-8 -17 -8 -20 -1 -3 6 -4 5 -2 -2 1 -7 8 -12 14 -10 6 1 11 -2 11 -8 0 -5 -9
-10 -20 -10 -11 0 -19 3 -19 8 4 26 -4 32 -47 32 -32 0 -43 3 -38 12 5 7 3 8
-7 2 -19 -12 -40 -14 -34 -4 3 5 0 10 -7 12 -7 3 -5 7 6 11 10 4 15 3 11 -3
-3 -6 -2 -10 3 -10 6 0 12 6 15 13 3 9 -7 13 -32 15 -79 4 -94 8 -97 26 -2 13
1 14 10 7 7 -6 17 -7 21 -3 5 4 5 1 0 -7 -5 -9 -4 -12 3 -7 17 10 15 29 -2 23
-8 -3 -17 -3 -21 1 -4 4 -15 8 -26 8 -37 3 -40 4 -37 22 2 11 -4 18 -19 20
-13 2 -23 8 -23 13 0 5 -5 9 -11 9 -5 0 -8 -4 -5 -9 4 -5 -2 -8 -11 -7 -10 2
-18 11 -19 22 -1 27 -14 54 -26 54 -6 0 -5 -6 2 -15 7 -8 8 -15 3 -15 -16 0
-32 22 -26 36 3 8 0 14 -7 14 -6 0 -8 6 -5 13 4 6 0 4 -8 -5 -16 -20 -27 -14
-27 14 0 17 -10 22 -36 19 -5 0 -10 18 -11 40 -1 43 -16 61 -41 51 -11 -4 -14
-1 -9 11 3 9 -2 26 -14 39 -11 13 -18 17 -14 11 3 -7 1 -13 -4 -13 -10 0 -15
33 -12 71 2 17 -24 33 -38 24 -5 -2 -8 9 -9 26 0 17 -7 38 -14 47 -7 9 -8 13
-2 9 7 -4 11 6 11 29 0 20 -4 30 -8 22 -4 -6 -6 -15 -3 -19 2 -4 -3 -10 -12
-13 -11 -4 -15 -2 -11 8 3 8 3 17 -1 20 -11 12 -10 36 1 36 7 0 4 7 -6 14 -11
9 -14 17 -8 20 10 7 7 24 -11 63 -6 12 -14 20 -19 18 -9 -6 -6 15 4 33 5 6 4
12 0 12 -14 0 -13 44 0 52 9 6 9 8 0 8 -7 0 -13 7 -13 16 0 8 5 12 10 9 6 -3
10 -1 10 4 0 6 -5 11 -12 11 -6 0 -3 10 8 22 13 15 14 18 3 10 -15 -11 -17 -8
-17 28 0 22 3 40 8 40 5 0 8 -6 6 -12 -1 -7 -1 -10 1 -5 3 4 8 5 12 3 4 -3 8
1 8 9 0 8 -3 14 -6 13 -23 -2 -29 5 -26 30 2 15 4 30 4 35 1 4 5 7 10 7 5 0 8
-13 6 -30 -2 -16 1 -30 6 -30 6 0 7 5 4 10 -3 6 -1 10 5 10 6 0 8 5 4 12 -5 7
-7 31 -5 53 2 22 4 56 5 75 0 19 5 38 10 42 6 4 5 12 -2 21 -15 18 -4 29 18
17 11 -6 17 -5 17 3 1 7 2 31 4 55 2 38 5 42 27 42 l25 0 -24 27 c-22 25 -22
26 -1 9 24 -21 24 -21 25 42 0 24 12 30 20 10 8 -25 23 11 26 62 1 9 4 11 9 5
16 -22 29 -12 30 22 1 20 4 38 7 41 10 10 35 11 29 1 -3 -5 -9 -7 -13 -5 -4 3
-8 0 -8 -7 0 -7 7 -13 16 -13 11 0 17 11 19 34 3 45 8 52 39 52 19 0 24 4 19
16 -4 10 -2 14 6 11 7 -2 11 -11 10 -18 -2 -8 0 -10 4 -6 10 10 15 38 5 33 -4
-3 -13 -1 -21 5 -12 7 -11 9 6 9 22 0 58 32 48 43 -3 3 3 3 15 0 14 -3 21 -1
21 8 0 11 2 11 10 -1 8 -12 10 -12 16 3 5 15 9 15 23 5 11 -8 10 -5 -3 10
l-19 22 34 1 c19 1 39 1 45 0 14 -2 27 27 18 40 -3 5 6 10 20 10 14 1 35 3 46
4 11 1 25 3 32 4 7 0 3 8 -8 17 -10 8 -13 13 -6 9 6 -3 12 -2 12 2 0 5 17 9
38 10 65 1 72 3 70 16 -2 6 -7 15 -12 18 -5 4 4 7 20 7 148 -1 245 5 233 13
-9 5 -10 9 -2 9 6 0 15 -4 18 -10z m332 -26 c0 -7 -6 -10 -14 -7 -7 3 -13 8
-13 12 0 4 6 8 13 8 8 0 14 -6 14 -13z m-730 -56 c-3 -8 -6 -5 -6 6 -1 11 2
17 5 13 3 -3 4 -12 1 -19z m-72 -46 c-3 -3 -12 -7 -19 -8 -12 -2 -13 4 -7 35
1 2 8 -2 16 -9 9 -7 13 -15 10 -18z m-330 -262 c-3 -5 -12 -10 -18 -10 -7 0
-6 4 3 10 19 12 23 12 15 0z m3496 -24 c-6 -7 -7 -17 -3 -22 4 -4 -1 -2 -11 5
-13 10 -15 17 -6 27 6 8 15 11 21 8 5 -4 5 -11 -1 -18z m9 -46 c0 -5 -4 -10
-10 -10 -5 0 -10 5 -10 10 0 6 5 10 10 10 6 0 10 -4 10 -10z m-3646 -178 c3
-5 -1 -9 -9 -9 -8 0 -12 4 -9 9 3 4 7 8 9 8 2 0 6 -4 9 -8z m2001 -162 c3 -5
1 -10 -4 -10 -6 0 -11 5 -11 10 0 6 2 10 4 10 3 0 8 -4 11 -10z m25 -20 c0 -5
-5 -10 -11 -10 -5 0 -7 5 -4 10 3 6 8 10 11 10 2 0 4 -4 4 -10z m-2070 -4 c0
-2 -7 -7 -16 -10 -8 -3 -12 -2 -9 4 6 10 25 14 25 6z m2061 -323 c-11 -5 -11
-7 0 -14 11 -7 11 -9 1 -9 -7 0 -11 -4 -8 -9 3 -5 -1 -14 -9 -21 -10 -9 -15
-9 -15 -1 0 6 5 11 11 11 6 0 7 5 2 13 -14 22 -11 33 11 34 11 1 15 -1 7 -4z
m-2073 -68 c-3 -3 -9 2 -12 12 -6 14 -5 15 5 6 7 -7 10 -15 7 -18z m3742 -25
c0 -5 -5 -10 -11 -10 -5 0 -7 5 -4 10 3 6 8 10 11 10 2 0 4 -4 4 -10z m-5401
-44 c-3 -3 -11 5 -18 17 -13 21 -12 21 5 5 10 -10 16 -20 13 -22z m5401 10 c0
-2 -7 -7 -16 -10 -8 -3 -12 -2 -9 4 6 10 25 14 25 6z m-45 -326 c3 -5 1 -10
-6 -10 -8 0 -8 -4 -1 -13 8 -10 6 -13 -11 -14 -12 -1 -17 1 -11 5 6 4 10 15 8
25 -2 18 11 23 21 7z m-5317 -25 c-3 -3 -9 2 -12 12 -6 14 -5 15 5 6 7 -7 10
-15 7 -18z m1818 -1 c1 -9 0 -13 -4 -10 -3 4 -7 14 -8 22 -1 9 0 13 4 10 3 -4
7 -14 8 -22z m-1770 -157 c20 7 18 -10 -3 -23 -15 -9 -18 -7 -19 15 -1 14 1
21 3 14 2 -7 11 -9 19 -6z m3274 -32 c0 -12 -19 -12 -23 0 -4 9 -1 12 9 8 7
-3 14 -7 14 -8z m-3220 -123 c0 -10 -7 -19 -14 -19 -11 0 -13 5 -5 19 5 10 12
18 14 18 3 0 5 -8 5 -18z m2987 -11 c0 -11 -5 -18 -9 -15 -4 3 -5 11 -1 19 7
21 12 19 10 -4z m-368 -104 c0 -9 -2 -9 -5 0 -3 7 -13 9 -22 6 -14 -4 -14 -3
-2 5 16 12 30 7 29 -11z m2177 -494 c-3 -19 -19 -21 -21 -2 -2 9 3 16 10 16 7
0 12 -6 11 -14z m-236 -267 c0 -3 -4 -8 -10 -11 -5 -3 -10 -1 -10 4 0 6 5 11
10 11 6 0 10 -2 10 -4z m-186 -200 c-6 -16 -24 -13 -24 5 0 6 5 7 10 4 6 -3
10 -1 10 6 0 7 2 10 5 7 3 -3 3 -13 -1 -22z m-3624 -9 c0 -7 -4 -6 -10 3 -8
12 -10 12 -10 1 0 -8 -3 -12 -6 -8 -9 9 6 28 17 22 5 -4 9 -12 9 -18z m170
-127 c0 -5 -2 -10 -4 -10 -3 0 -8 5 -11 10 -3 6 -1 10 4 10 6 0 11 -4 11 -10z
m2893 -228 c4 9 6 9 6 1 2 -20 -16 -24 -30 -5 -13 15 -12 16 3 4 13 -10 17
-10 21 0z m-2407 -44 c4 4 2 -1 -5 -11 -15 -19 -24 -16 -27 9 -2 11 1 12 10 5
7 -6 17 -7 22 -3z m214 -92 c0 -3 -4 -8 -10 -11 -5 -3 -10 -1 -10 4 0 6 5 11
10 11 6 0 10 -2 10 -4z m1887 -22 c-3 -3 -12 -4 -19 -1 -8 3 -5 6 6 6 11 1 17
-2 13 -5z m-1724 -39 c-3 -9 -8 -14 -10 -11 -3 3 -2 9 2 15 9 16 15 13 8 -4z
m204 -97 c-3 -8 -6 -5 -6 6 -1 11 2 17 5 13 3 -3 4 -12 1 -19z m1078 -38 c3
-6 -1 -7 -9 -4 -18 7 -21 14 -7 14 6 0 13 -4 16 -10z m-961 -183 c4 4 4 -1 0
-10 -8 -22 -26 -17 -30 7 -2 13 1 14 10 7 7 -6 16 -8 20 -4z m42 -109 c4 -7 3
-8 -4 -4 -7 4 -12 2 -12 -5 0 -7 -3 -10 -6 -6 -6 5 3 27 11 27 2 0 7 -5 11
-12z m92 -225 c-2 -10 -7 -18 -12 -18 -5 0 -10 8 -12 18 -1 9 4 17 13 17 8 0
13 -7 11 -17z m598 -46 c1 -7 -7 -14 -17 -14 -22 -2 -24 8 -7 25 13 13 21 9
24 -11z m-381 -466 c3 -5 2 -12 -3 -15 -5 -3 -9 1 -9 9 0 17 3 19 12 6z"/>
<path d="M3196 5112 c-2 -4 -1 -14 3 -21 6 -10 10 -9 14 3 6 16 -8 32 -17 18z"/>
<path d="M3235 5100 c3 -5 8 -10 11 -10 2 0 4 5 4 10 0 6 -5 10 -11 10 -5 0
-7 -4 -4 -10z"/>
<path d="M2822 4917 c-8 -10 -7 -13 7 -14 10 -1 18 5 18 13 0 17 -11 18 -25 1z"/>
<path d="M2726 4832 c-3 -5 1 -9 9 -9 8 0 12 4 9 9 -3 4 -7 8 -9 8 -2 0 -6 -4
-9 -8z"/>
<path d="M4355 4630 c-3 -5 -1 -10 4 -10 6 0 11 5 11 10 0 6 -2 10 -4 10 -3 0
-8 -4 -11 -10z"/>
<path d="M2547 4539 c7 -7 15 -10 18 -7 3 3 -2 9 -12 12 -14 6 -15 5 -6 -5z"/>
<path d="M4438 4458 c10 -13 10 -17 0 -21 -7 -3 -3 -4 10 -4 12 1 22 4 22 7 0
3 -10 11 -22 19 -21 13 -22 13 -10 -1z"/>
<path d="M2505 4440 c-3 -5 -1 -10 4 -10 6 0 11 5 11 10 0 6 -2 10 -4 10 -3 0
-8 -4 -11 -10z"/>
<path d="M4505 4281 c6 -11 4 -13 -7 -8 -11 4 -15 1 -14 -9 1 -8 5 -14 9 -14
4 0 11 0 16 0 11 0 8 26 -4 37 -4 5 -5 2 0 -6z"/>
<path d="M4510 4211 c0 -7 -4 -9 -10 -6 -6 4 -7 -1 -3 -11 6 -15 7 -15 15 1 6
9 7 19 4 22 -3 4 -6 1 -6 -6z"/>
<path d="M4485 4099 c-4 -6 -5 -12 -2 -15 2 -3 7 2 10 11 7 17 1 20 -8 4z"/>
<path d="M2450 4050 c-8 -5 -12 -12 -9 -15 4 -3 12 1 19 10 14 17 11 19 -10 5z"/>
<path d="M2459 4025 c-1 -3 -2 -9 -3 -14 0 -5 -4 -12 -8 -16 -8 -8 13 -45 26
-45 4 0 4 6 -2 13 -15 18 -15 29 0 38 10 7 10 9 0 9 -7 0 -10 5 -7 10 3 6 4
10 1 10 -3 0 -7 -2 -7 -5z"/>
<path d="M4357 3627 c-3 -8 1 -14 8 -14 7 0 11 6 8 14 -3 7 -6 13 -8 13 -2 0
-5 -6 -8 -13z"/>
<path d="M2580 3626 c0 -2 7 -7 16 -10 8 -3 12 -2 9 4 -6 10 -25 14 -25 6z"/>
<path d="M2681 3482 c-7 -14 -6 -18 9 -18 14 0 16 4 9 12 -7 8 -6 14 3 17 9 4
10 6 1 6 -7 1 -17 -7 -22 -17z"/>
<path d="M4255 3489 c-4 -5 -4 -13 -1 -16 3 -4 6 0 6 8 0 11 2 11 10 -1 6 -9
10 -10 10 -3 0 17 -17 25 -25 12z"/>
<path d="M2819 3357 c0 -1 -2 -10 -4 -20 -3 -15 -1 -16 13 -5 9 7 18 13 20 14
2 1 -4 4 -13 7 -8 4 -15 5 -16 4z"/>
<path d="M3035 6790 c3 -5 8 -10 11 -10 2 0 4 5 4 10 0 6 -5 10 -11 10 -5 0
-7 -4 -4 -10z"/>
<path d="M2631 6707 c-8 -10 -7 -14 2 -14 8 0 14 6 14 14 0 7 -1 13 -2 13 -2
0 -8 -6 -14 -13z"/>
<path d="M4273 6702 c1 -25 23 -24 44 2 15 17 15 19 1 8 -11 -9 -18 -10 -23
-2 -10 16 -24 12 -22 -8z"/>
<path d="M2411 6604 c0 -11 3 -14 6 -6 3 7 2 16 -1 19 -3 4 -6 -2 -5 -13z"/>
<path d="M4556 6608 c3 -5 10 -6 15 -3 13 9 11 12 -6 12 -8 0 -12 -4 -9 -9z"/>
<path d="M4835 6460 c-3 -5 -1 -10 4 -10 6 0 11 5 11 10 0 6 -2 10 -4 10 -3 0
-8 -4 -11 -10z"/>
<path d="M2013 6425 c0 -8 4 -12 9 -9 5 3 6 10 3 15 -9 13 -12 11 -12 -6z"/>
<path d="M4916 6423 c-6 -14 -5 -15 5 -6 7 7 10 15 7 18 -3 3 -9 -2 -12 -12z"/>
<path d="M5387 6055 c-4 -8 -2 -17 2 -20 5 -2 11 4 14 15 6 23 -8 27 -16 5z"/>
<path d="M1497 6013 c7 -2 9 -11 6 -19 -3 -9 0 -12 9 -9 22 9 18 31 -6 32 -12
1 -16 -1 -9 -4z"/>
<path d="M1380 5869 c0 -5 -4 -8 -9 -4 -5 3 -12 1 -15 -4 -4 -5 2 -8 11 -7 15
3 33 26 19 26 -3 0 -6 -5 -6 -11z"/>
<path d="M5803 5528 c-2 -16 0 -16 13 -4 17 18 18 23 1 23 -7 0 -14 -9 -14
-19z"/>
<path d="M5866 5455 c-3 -8 -1 -15 4 -15 6 0 10 7 10 15 0 8 -2 15 -4 15 -2 0
-6 -7 -10 -15z"/>
<path d="M6177 4555 c-6 -15 10 -32 20 -21 4 3 1 6 -5 6 -6 0 -9 7 -6 15 4 8
4 15 1 15 -3 0 -7 -7 -10 -15z"/>
<path d="M759 4533 c6 -13 8 -23 3 -23 -5 0 -9 -16 -9 -36 0 -32 2 -35 13 -19
15 20 11 73 -7 89 -9 8 -9 6 0 -11z"/>
<path d="M6175 3701 c-9 -15 15 -25 28 -12 9 9 7 10 -7 5 -13 -5 -17 -4 -12 4
4 7 5 12 2 12 -3 0 -7 -4 -11 -9z"/>
<path d="M810 3480 c0 -5 5 -10 11 -10 5 0 7 5 4 10 -3 6 -8 10 -11 10 -2 0
-4 -4 -4 -10z"/>
<path d="M6080 3340 c-6 -11 -9 -20 -8 -21 26 -7 34 -4 35 12 2 27 -14 33 -27
9z m11 -13 c-10 -9 -11 -8 -5 6 3 10 9 15 12 12 3 -3 0 -11 -7 -18z"/>
<path d="M994 2960 c0 -13 4 -16 10 -10 7 7 7 13 0 20 -6 6 -10 3 -10 -10z"/>
<path d="M1146 2727 c3 -10 9 -15 12 -12 3 3 0 11 -7 18 -10 9 -11 8 -5 -6z"/>
<path d="M5804 2720 c0 -13 4 -16 12 -10 6 6 14 7 17 3 4 -3 7 -3 7 0 0 3 -8
11 -18 16 -14 7 -18 6 -18 -9z"/>
<path d="M1227 2583 c3 -7 8 -13 12 -13 4 0 8 6 8 13 0 8 -6 14 -13 14 -7 0
-10 -6 -7 -14z"/>
<path d="M1370 2400 c-9 -6 -10 -10 -3 -10 6 0 15 5 18 10 8 12 4 12 -15 0z"/>
<path d="M1590 2160 c0 -6 4 -9 9 -6 5 4 12 1 14 -4 3 -6 4 -5 3 2 -3 15 -26
23 -26 8z"/>
<path d="M1700 2079 c0 -5 5 -7 10 -4 6 3 10 8 10 11 0 2 -4 4 -10 4 -5 0 -10
-5 -10 -11z"/>
<path d="M1873 1925 c0 -8 4 -15 9 -15 4 0 8 7 8 15 0 8 -4 15 -8 15 -5 0 -9
-7 -9 -15z"/>
<path d="M4543 1645 c-1 -11 1 -14 4 -7 3 6 11 12 19 12 8 0 14 4 14 8 0 4 -8
8 -18 8 -11 0 -18 -8 -19 -21z"/>
<path d="M4140 1520 c0 -5 5 -10 11 -10 5 0 7 5 4 10 -3 6 -8 10 -11 10 -2 0
-4 -4 -4 -10z"/>
<path d="M2900 1426 c0 -2 8 -10 18 -17 15 -13 16 -12 3 4 -13 16 -21 21 -21
13z"/>
<path d="M3902 1191 c-11 -7 -11 -9 0 -14 9 -3 15 1 15 9 0 8 -1 14 -1 14 -1
0 -7 -4 -14 -9z"/>
<path d="M3056 1087 c3 -10 9 -15 12 -12 3 3 0 11 -7 18 -10 9 -11 8 -5 -6z"/>
<path d="M3855 1080 c-3 -5 1 -10 10 -10 9 0 13 5 10 10 -3 6 -8 10 -10 10 -2
0 -7 -4 -10 -10z"/>
<path d="M3105 1000 c-4 -6 -11 -7 -17 -4 -7 4 -8 2 -4 -4 7 -12 36 -5 36 9 0
12 -7 11 -15 -1z"/>
<path d="M3193 765 c0 -8 4 -12 9 -9 5 3 6 10 3 15 -9 13 -12 11 -12 -6z"/>
<path d="M3655 620 c-3 -5 -1 -10 4 -10 6 0 11 5 11 10 0 6 -2 10 -4 10 -3 0
-8 -4 -11 -10z"/>
</g>
</svg>
